<?xml version="1.0" encoding="UTF-8" standalone="no"?>
<svg
   xmlns:osb="http://www.openswatchbook.org/uri/2009/osb"
   xmlns:dc="http://purl.org/dc/elements/1.1/"
   xmlns:cc="http://creativecommons.org/ns#"
   xmlns:rdf="http://www.w3.org/1999/02/22-rdf-syntax-ns#"
   xmlns:svg="http://www.w3.org/2000/svg"
   xmlns="http://www.w3.org/2000/svg"
   xmlns:sodipodi="http://sodipodi.sourceforge.net/DTD/sodipodi-0.dtd"
   xmlns:inkscape="http://www.inkscape.org/namespaces/inkscape"
   width="210mm"
   height="297mm"
   viewBox="0 0 210 297"
   version="1.1"
   id="svg8"
   inkscape:version="1.0.2-2 (e86c870879, 2021-01-15)"
   sodipodi:docname="perennialSolutionsLogo.svg">
  <defs
     id="defs2">
    <linearGradient
       id="linearGradient3092"
       osb:paint="solid">
      <stop
         style="stop-color:#000000;stop-opacity:1;"
         offset="0"
         id="stop3090" />
    </linearGradient>
    <rect
       x="-49.192289"
       y="-414.0351"
       width="336.14731"
       height="387.09646"
       id="rect1066" />
    <rect
       x="-65.589718"
       y="4.0993574"
       width="10.541204"
       height="11.71245"
       id="rect1056" />
  </defs>
  <sodipodi:namedview
     id="base"
     pagecolor="#ffffff"
     bordercolor="#666666"
     borderopacity="1.0"
     inkscape:pageopacity="0.0"
     inkscape:pageshadow="2"
     inkscape:zoom="0.15973488"
     inkscape:cx="2952.6732"
     inkscape:cy="65.753402"
     inkscape:document-units="mm"
     inkscape:current-layer="svg8"
     inkscape:document-rotation="0"
     showgrid="false"
     showguides="true"
     inkscape:window-width="1920"
     inkscape:window-height="1017"
     inkscape:window-x="-8"
     inkscape:window-y="-8"
     inkscape:window-maximized="1" />
  <metadata
     id="metadata5">
    <rdf:RDF>
      <cc:Work
         rdf:about="">
        <dc:format>image/svg+xml</dc:format>
        <dc:type
           rdf:resource="http://purl.org/dc/dcmitype/StillImage" />
        <dc:title></dc:title>
      </cc:Work>
    </rdf:RDF>
  </metadata>
  <g
     inkscape:label="Layer 1"
     inkscape:groupmode="layer"
     id="layer1">
    <path
       id="path10"
       style="fill:#000000;fill-rule:evenodd;stroke-width:0.999999"
       transform="scale(0.26458333)"
       d="m 439.17969,514.36328 c 0.0884,0.096 0.17894,0.19063 0.26367,0.28906 0.57964,-0.0952 1.13509,-0.19896 1.74609,-0.28906 -0.66989,4.4e-4 -1.33983,-2.1e-4 -2.00976,0 z" />
  </g>
  <text
     xml:space="preserve"
     id="text1054"
     style="font-style:normal;font-weight:normal;font-size:10.5833px;line-height:1.25;font-family:sans-serif;white-space:pre;shape-inside:url(#rect1056);fill:#000000;fill-opacity:1;stroke:none;"><tspan
       style="visibility:hidden"
       x="-65.589844"
       y="25.17624"><tspan
         dx="0 2.9403796">in</tspan></tspan></text>
  <text
     xml:space="preserve"
     id="text1064"
     style="fill:black;fill-opacity:1;line-height:1.25;stroke:none;font-family:sans-serif;font-style:normal;font-weight:normal;font-size:10.58333333px;white-space:pre;shape-inside:url(#rect1066);" />
  <ellipse
     style="fill:#000000;fill-opacity:1;fill-rule:evenodd;stroke:#000000;stroke-width:0.771001;stroke-miterlimit:4;stroke-dasharray:none;stroke-opacity:1"
     id="path3160"
     cx="1232.3545"
     cy="-110.14994"
     rx="291.52475"
     ry="274.13263" />
  <g
     id="g3197"
     transform="translate(1018.8115,152.74395)">
    <circle
       style="fill:#ffffff;fill-opacity:1;fill-rule:evenodd;stroke:none;stroke-width:0.634;stroke-miterlimit:4;stroke-dasharray:none;stroke-opacity:1"
       id="path1129"
       sodipodi:type="arc"
       sodipodi:cx="130.6478"
       sodipodi:cy="-214.82123"
       sodipodi:rx="42.03091"
       sodipodi:ry="68.007439"
       sodipodi:start="0"
       sodipodi:end="4.0146238"
       sodipodi:open="true"
       sodipodi:arc-type="arc"
       d="m 172.67871,-214.82123 a 42.03091,68.007439 0 0 1 -32.34292,66.17621 42.03091,68.007439 0 0 1 -47.252795,-35.66938 42.03091,68.007439 0 0 1 10.559655,-82.61957" />
    <path
       style="fill:#ffffff;fill-opacity:1;stroke:#000000;stroke-width:0.771;stroke-linecap:butt;stroke-linejoin:miter;stroke-miterlimit:4;stroke-dasharray:none;stroke-opacity:1"
       d="m 213.22211,-449.8574 c -7.27132,0.28839 -11.06589,19.03504 -14.68751,30.84074 -2.09839,6.84029 -3.08406,14.66716 -3.82278,22.33295 -0.77534,8.04585 -0.92572,16.31865 -0.60359,24.4599 0.74466,18.81986 1.52704,41.49723 4.62757,59.55453 1.33109,7.75219 2.84941,13.85064 6.63956,18.43355 4.4821,5.4196 11.42834,5.32357 16.2971,1.06347 4.18275,-3.65984 6.3526,-12.53902 8.04795,-20.206 4.46941,-20.21218 4.32555,-42.84356 4.82877,-64.51741 0.22231,-9.57493 0.45306,-10.03337 -0.4024,-19.49702 -0.6369,-7.04593 -2.15812,-11.82146 -5.13057,-21.26948 -3.02402,-9.61195 -8.47217,-31.48563 -15.7941,-31.19523 z"
       id="path1146"
       sodipodi:nodetypes="ssssssssssss" />
    <path
       style="fill:#ffffff;fill-opacity:1;stroke:#000000;stroke-width:0.771;stroke-linecap:butt;stroke-linejoin:miter;stroke-miterlimit:4;stroke-dasharray:none;stroke-opacity:1"
       d="m 261.8764,-437.34841 c -7.13578,-1.42684 -15.22565,15.90491 -21.5178,26.53033 -3.6457,6.15643 -6.44143,13.53311 -8.95928,20.81119 -2.64268,7.63892 -4.73116,15.64517 -6.32945,23.63449 -3.6947,18.46864 -8.25841,40.69583 -9.48406,58.97634 -0.52619,7.84802 -0.48211,14.13248 2.12612,19.47715 3.0844,6.32042 9.85902,7.85792 15.59188,4.85999 4.9251,-2.57551 9.11896,-10.69706 12.56699,-17.75169 9.08992,-18.59788 14.26351,-40.63045 19.84127,-61.58033 2.46411,-9.2551 2.79605,-9.64655 4.18639,-19.04652 1.03515,-6.99852 0.67766,-11.99772 0.007,-21.87953 -0.68279,-10.05326 -0.84312,-32.59465 -8.02857,-34.03142 z"
       id="path3100"
       sodipodi:nodetypes="ssssssssssss" />
    <path
       style="fill:#ffffff;fill-opacity:1;stroke:#000000;stroke-width:0.771;stroke-linecap:butt;stroke-linejoin:miter;stroke-miterlimit:4;stroke-dasharray:none;stroke-opacity:1"
       d="m 309.96138,-413.97652 c -6.47371,-3.32359 -18.99429,11.13568 -27.95196,19.63574 -5.19011,4.92498 -9.8963,11.25612 -14.30824,17.5684 -4.63067,6.62523 -8.8287,13.75533 -12.5506,21.00318 -8.60376,16.7546 -19.07111,36.88691 -25.24847,54.13567 -2.65201,7.40507 -4.32796,13.4621 -3.28051,19.31626 1.23868,6.92293 7.33473,10.25421 13.66885,8.93805 5.44163,-1.1307 11.69634,-7.79603 16.94191,-13.63903 13.82872,-15.40371 24.82949,-35.18207 35.923,-53.80847 4.90081,-8.22865 5.32714,-8.51442 9.23472,-17.17602 2.9093,-6.44879 3.93236,-11.35523 5.98922,-21.04384 2.09208,-9.85685 8.10133,-31.58308 1.58255,-34.9298 z"
       id="path3102"
       sodipodi:nodetypes="ssssssssssss" />
    <path
       style="fill:#ffffff;fill-opacity:1;stroke:#000000;stroke-width:0.771;stroke-linecap:butt;stroke-linejoin:miter;stroke-miterlimit:4;stroke-dasharray:none;stroke-opacity:1"
       d="m 352.46783,-370.07034 c -5.18944,-5.10146 -21.44945,4.97065 -32.53285,10.41576 -6.42177,3.15493 -12.80055,7.79634 -18.89283,12.50741 -6.39432,4.94464 -12.52607,10.50013 -18.2384,16.30988 -13.20496,13.43019 -29.19526,29.52944 -40.23125,44.15429 -4.73788,6.2786 -8.14238,11.56119 -8.88672,17.46156 -0.88024,6.97757 3.9464,11.97384 10.38499,12.60468 5.53137,0.54197 13.48792,-3.95707 20.23615,-7.9718 17.79013,-10.58391 34.18415,-26.18636 50.32349,-40.66153 7.12992,-6.39475 7.62203,-6.54052 13.93283,-13.64449 4.69856,-5.28909 7.13701,-9.66787 11.98713,-18.30362 4.93387,-8.78585 17.14344,-27.7349 11.91787,-32.87187 z"
       id="path3104"
       sodipodi:nodetypes="ssssssssssss" />
    <path
       style="fill:#ffffff;fill-opacity:1;stroke:#000000;stroke-width:0.771;stroke-linecap:butt;stroke-linejoin:miter;stroke-miterlimit:4;stroke-dasharray:none;stroke-opacity:1"
       d="m 388.73727,-312.53592 c -2.71099,-6.7532 -21.64425,-4.03893 -33.98077,-3.49022 -7.14784,0.31794 -14.85182,2.01507 -22.3212,3.89081 -7.8397,1.96874 -15.68354,4.60236 -23.24496,7.63697 -17.47943,7.01502 -38.58021,15.35965 -54.55095,24.33821 -6.85642,3.85459 -12.09212,7.33077 -15.13796,12.43873 -3.60192,6.04049 -1.1812,12.55196 4.46536,15.70944 4.85094,2.7126 13.9435,1.77801 21.73492,0.80307 20.54025,-2.57019 41.8119,-10.29789 62.39857,-17.09477 9.09464,-3.00268 9.60393,-2.93909 18.23219,-6.91976 6.42397,-2.96371 10.41244,-5.99881 18.31604,-11.96815 8.04047,-6.07331 26.81889,-18.54371 24.08902,-25.34392 z"
       id="path3106"
       sodipodi:nodetypes="ssssssssssss" />
    <path
       style="fill:#ffffff;fill-opacity:1;stroke:#000000;stroke-width:0.771;stroke-linecap:butt;stroke-linejoin:miter;stroke-miterlimit:4;stroke-dasharray:none;stroke-opacity:1"
       d="m 397.77654,-259.60925 c -0.84947,-7.22728 -19.8333,-9.56172 -31.88359,-12.26014 -6.98199,-1.56347 -14.86164,-1.94132 -22.56159,-2.08539 -8.08171,-0.15122 -16.34138,0.3382 -24.4334,1.28853 -18.70601,2.19689 -41.25511,4.72948 -59.01877,9.21626 -7.62614,1.92622 -13.58902,3.9113 -17.8653,8.04431 -5.05701,4.88754 -4.42444,11.80556 0.19919,16.33053 3.97214,3.8874 12.99246,5.36456 20.76753,6.46232 20.49713,2.89399 43.04972,1.00154 64.69763,-0.17175 9.56346,-0.51833 10.03837,-0.32369 19.40761,-1.90797 6.97565,-1.17954 11.61933,-3.06526 20.80952,-6.75854 9.3495,-3.75781 30.73671,-10.88011 29.88132,-18.1577 z"
       id="path3108"
       sodipodi:nodetypes="ssssssssssss" />
    <path
       style="fill:#ffffff;fill-opacity:1;stroke:#000000;stroke-width:0.771;stroke-linecap:butt;stroke-linejoin:miter;stroke-miterlimit:4;stroke-dasharray:none;stroke-opacity:1"
       d="m 388.88324,-200.61166 c 1.48626,-7.12364 -15.77746,-15.35768 -26.35008,-21.73817 -6.12582,-3.69688 -13.47895,-6.554 -20.73579,-9.13241 -7.61663,-2.70626 -15.6052,-4.86138 -23.58093,-6.52622 -18.43719,-3.84848 -40.62558,-8.5973 -58.89523,-9.97525 -7.84337,-0.59158 -14.12798,-0.59988 -19.4942,1.96373 -6.34592,3.03161 -7.93982,9.79317 -4.98977,15.55082 2.53436,4.94639 10.62068,9.2078 17.64634,12.71451 18.52147,9.2446 40.51017,14.60163 61.41282,20.35381 9.23423,2.54115 9.6229,2.87635 19.01097,4.34498 6.98966,1.09343 11.99166,0.77763 21.87871,0.18934 10.05861,-0.59898 32.60055,-0.57143 34.09715,-7.74466 z"
       id="path3110"
       sodipodi:nodetypes="ssssssssssss" />
    <path
       style="fill:#ffffff;fill-opacity:1;stroke:#000000;stroke-width:0.771;stroke-linecap:butt;stroke-linejoin:miter;stroke-miterlimit:4;stroke-dasharray:none;stroke-opacity:1"
       d="m 353.22679,-140.46645 c 4.23632,-5.91682 -8.23219,-20.42101 -15.3279,-30.52753 -4.11129,-5.85576 -9.68448,-11.43888 -15.28213,-16.72814 -5.87517,-5.55151 -12.31317,-10.74901 -18.9374,-15.4928 -15.313,-10.96597 -33.69419,-24.2704 -49.85157,-32.90858 -6.93654,-3.70848 -12.6826,-6.25389 -18.62706,-6.07556 -7.02972,0.21085 -11.2183,5.75296 -10.84451,12.21156 0.32111,5.54858 5.99797,12.71247 11.00926,18.75762 13.21108,15.9366 31.16397,29.71681 47.96374,43.41995 7.42169,6.05368 7.6419,6.51728 15.63743,11.65189 5.95288,3.82285 10.65644,5.55383 19.93907,9.00819 9.4439,3.51385 30.05505,12.64185 34.32086,6.68384 z"
       id="path3112"
       sodipodi:nodetypes="ssssssssssss" />
    <path
       style="fill:#ffffff;fill-opacity:1;stroke:#000000;stroke-width:0.771;stroke-linecap:butt;stroke-linejoin:miter;stroke-miterlimit:4;stroke-dasharray:none;stroke-opacity:1"
       d="m 312.72818,-108.159 c 5.48558,-4.7816 -3.30573,-21.76831 -7.882,-33.23777 -2.65152,-6.64546 -6.78842,-13.36243 -11.01683,-19.79908 -4.43804,-6.75579 -9.50534,-13.29677 -14.85838,-19.43916 -12.37447,-14.19904 -27.1958,-31.38055 -40.92826,-43.50898 -5.89549,-5.20688 -10.90049,-9.00769 -16.72612,-10.20376 -6.88917,-1.41447 -12.24196,3.01349 -13.36628,9.38446 -0.96593,5.47329 2.90765,13.75238 6.39136,20.78948 9.18386,18.55167 23.47879,36.09748 36.6694,53.30259 5.82726,7.60077 5.93473,8.10264 12.53213,14.94127 4.91194,5.09154 9.09015,7.85965 17.32716,13.35979 8.38023,5.59518 26.33377,19.2264 31.85755,14.41153 z"
       id="path3114"
       sodipodi:nodetypes="ssssssssssss" />
    <path
       style="fill:#ffffff;fill-opacity:1;stroke:#000000;stroke-width:0.771;stroke-linecap:butt;stroke-linejoin:miter;stroke-miterlimit:4;stroke-dasharray:none;stroke-opacity:1"
       d="m 215.63309,-73.492414 c 7.23854,-0.747573 9.84022,-19.696629 12.70817,-31.707696 1.6617,-6.95927 2.15054,-14.83281 2.40308,-22.52996 0.26508,-8.07878 -0.10792,-16.34454 -0.94412,-24.44915 -1.93311,-18.73509 -4.14772,-41.31764 -8.38377,-59.14277 -1.81857,-7.65252 -3.71944,-13.64276 -7.79179,-17.97686 -4.81579,-5.12539 -11.74204,-4.59035 -16.33171,-0.0309 -3.943,3.91697 -5.5471,12.91557 -6.75427,20.67443 -3.18251,20.45432 -1.60804,43.03133 -0.73986,64.69361 0.38353,9.56982 0.18221,10.04194 1.63432,19.43257 1.08113,6.99157 2.90124,11.66138 6.46465,20.9027 3.62571,9.401507 10.44594,30.886956 17.73486,30.134203 z"
       id="path3116"
       sodipodi:nodetypes="ssssssssssss" />
    <path
       style="fill:#ffffff;fill-opacity:1;stroke:#000000;stroke-width:0.771;stroke-linecap:butt;stroke-linejoin:miter;stroke-miterlimit:4;stroke-dasharray:none;stroke-opacity:1"
       d="m 260.20834,-87.008963 c 6.92432,-2.238125 5.52415,-21.313637 5.82878,-33.658597 0.1765,-7.15273 -0.9845,-14.95553 -2.3399,-22.53661 -1.42258,-7.95696 -3.50819,-15.96397 -6.0133,-23.71693 -5.79106,-17.92217 -12.65842,-39.5489 -20.51252,-56.10161 -3.37184,-7.10627 -6.47812,-12.56953 -11.36353,-15.96089 -5.77729,-4.01053 -12.4404,-2.0453 -15.98032,3.36974 -3.04117,4.65201 -2.73678,13.7874 -2.30224,21.62758 1.14543,20.6687 7.38552,42.42328 12.74437,63.4302 2.36739,9.28031 2.26876,9.78399 5.64402,18.66658 2.51296,6.61331 5.26536,10.80189 10.67457,19.0989 5.50349,8.44072 16.64717,28.035582 23.61968,25.781902 z"
       id="path3118"
       sodipodi:nodetypes="ssssssssssss" />
    <path
       style="fill:#ffffff;fill-opacity:1;stroke:#000000;stroke-width:0.771;stroke-linecap:butt;stroke-linejoin:miter;stroke-miterlimit:4;stroke-dasharray:none;stroke-opacity:1"
       d="m 26.287308,-249.20912 c 0.60849,7.25157 19.50412,10.21649 31.45792,13.31446 6.92609,1.79498 14.7888,2.43486 22.47968,2.8351 8.07221,0.4201 16.34361,0.20583 24.462782,-0.47465 18.76874,-1.57314 41.38964,-3.35387 59.29279,-7.24699 7.68603,-1.67134 13.71164,-3.45688 18.12312,-7.44529 5.21688,-4.71652 4.81489,-11.65176 0.34438,-16.32811 -3.84056,-4.01746 -12.80672,-5.79399 -20.54098,-7.14986 -20.38946,-3.57454 -42.99253,-2.43373 -64.667482,-1.98151 -9.57543,0.19977 -10.04359,-0.0106 -19.46037,1.26101 -7.01103,0.94673 -11.71492,2.67687 -21.02294,6.06224 -9.46937,3.44457 -31.08177,9.85114 -30.46907,17.15316 z"
       id="path3120"
       sodipodi:nodetypes="ssssssssssss" />
    <path
       style="fill:#ffffff;fill-opacity:1;stroke:#000000;stroke-width:0.771;stroke-linecap:butt;stroke-linejoin:miter;stroke-miterlimit:4;stroke-dasharray:none;stroke-opacity:1"
       d="m 50.091942,-160.10153 c 3.621083,6.31216 21.995204,0.99922 34.136519,-1.25449 7.034737,-1.30582 14.429041,-4.05462 21.566229,-6.94779 7.49106,-3.0366 14.89404,-6.73226 21.96175,-10.78585 16.33807,-9.37058 36.07821,-20.55998 50.64996,-31.66598 6.25583,-4.76793 10.95901,-8.9364 13.26729,-14.41731 2.72973,-6.48151 -0.57035,-12.5945 -6.60017,-14.93867 -5.18016,-2.01389 -14.05535,0.17226 -21.63637,2.21802 -19.98557,5.39302 -39.98046,15.99511 -59.42601,25.58046 -8.590531,4.23455 -9.103729,4.24215 -17.096795,9.3806 -5.951046,3.82569 -9.480236,7.38445 -16.479948,14.39187 -7.120828,7.12937 -23.989047,22.08274 -20.342794,28.43882 z"
       id="path3124"
       sodipodi:nodetypes="ssssssssssss"
       inkscape:transform-center-x="14.837993"
       inkscape:transform-center-y="-13.41176" />
    <path
       style="fill:#ffffff;fill-opacity:1;stroke:#000000;stroke-width:0.771;stroke-linecap:butt;stroke-linejoin:miter;stroke-miterlimit:4;stroke-dasharray:none;stroke-opacity:1"
       d="m 132.29806,-86.602422 c 6.53063,3.210364 18.79752,-11.464747 27.60584,-20.119488 5.10356,-5.0146 9.69881,-11.42673 14.00014,-17.81487 4.51461,-6.70486 8.58784,-13.907 12.183,-21.21856 8.3107,-16.90186 18.42592,-37.21339 24.30199,-54.56708 2.52267,-7.45015 4.09289,-13.53542 2.94365,-19.37046 -1.35901,-6.90033 -7.51214,-10.12496 -13.82242,-8.69868 -5.42111,1.22526 -11.55882,7.99851 -16.70183,13.93201 -13.5584,15.64218 -24.21312,35.60906 -34.98059,54.42581 -4.75679,8.31274 -5.17808,8.60587 -8.93425,17.33422 -2.79656,6.49847 -3.73404,11.422 -5.62189,21.14495 -1.92012,9.89177 -7.55015,31.719351 -0.9741,34.952072 z"
       id="path3128"
       sodipodi:nodetypes="ssssssssssss"
       inkscape:transform-center-x="17.786188"
       inkscape:transform-center-y="-1.7021712" />
    <path
       style="fill:#ffffff;fill-opacity:1;stroke:#000000;stroke-width:0.771;stroke-linecap:butt;stroke-linejoin:miter;stroke-miterlimit:4;stroke-dasharray:none;stroke-opacity:1"
       d="m 82.909977,-121.28493 c 5.242602,5.04685 21.396253,-5.19499 32.422033,-10.75584 6.38837,-3.22199 12.71822,-7.92994 18.76081,-12.70455 6.3422,-5.01132 12.41544,-10.63073 18.06665,-16.49997 13.06359,-13.56772 28.88445,-29.83352 39.76669,-44.57312 4.67189,-6.32788 8.02087,-11.64581 8.70338,-17.55366 0.80716,-6.98641 -4.07153,-11.93187 -10.51641,-12.49525 -5.53674,-0.48403 -13.44575,4.09809 -20.15156,8.18332 -17.67833,10.76961 -33.90809,26.54283 -49.89495,41.18622 -7.06257,6.46906 -7.55313,6.61995 -13.7892,13.78963 -4.64291,5.338 -7.035391,9.74209 -11.794831,18.42815 -4.841596,8.83702 -16.852083,27.91288 -11.573027,32.99486 z"
       id="path3126"
       sodipodi:nodetypes="ssssssssssss"
       inkscape:transform-center-x="17.0478"
       inkscape:transform-center-y="-8.1248125" />
    <path
       style="fill:#ffffff;fill-opacity:1;stroke:#000000;stroke-width:0.771;stroke-linecap:butt;stroke-linejoin:miter;stroke-miterlimit:4;stroke-dasharray:none;stroke-opacity:1"
       d="m 170.29372,-75.345214 c 7.11808,1.512809 15.41641,-15.720099 21.8363,-26.268846 3.71969,-6.11198 6.60422,-13.45441 9.20966,-20.70158 2.73464,-7.60648 4.91954,-15.58698 6.61412,-23.55645 3.91721,-18.4227 8.74873,-40.59323 10.19481,-58.85761 0.62082,-7.84112 0.65255,-14.12564 -1.89103,-19.50138 -3.00791,-6.3572 -9.76348,-7.97631 -15.53212,-5.04771 -4.95581,2.51588 -9.24734,10.58627 -12.78019,17.59883 -9.3136,18.48688 -14.75261,40.45541 -20.58267,61.33648 -2.57558,9.2247 -2.91223,9.6121 -4.41586,18.99464 -1.11949,6.98552 -0.82233,11.98869 -0.27093,21.87786 0.56147,10.060754 0.44986,32.602447 7.61745,34.125805 z"
       id="path3130"
       sodipodi:nodetypes="ssssssssssss"
       inkscape:transform-center-x="18.225926"
       inkscape:transform-center-y="3.3511389" />
    <path
       style="fill:#ffffff;fill-opacity:1;stroke:#000000;stroke-width:0.771;stroke-linecap:butt;stroke-linejoin:miter;stroke-miterlimit:4;stroke-dasharray:none;stroke-opacity:1"
       d="m 26.298541,-289.95976 c -0.756921,7.23758 17.252165,13.68028 28.416775,18.95686 6.468829,3.05727 14.073578,5.15476 21.554291,6.98472 7.85162,1.92071 16.017432,3.25543 24.120793,4.10371 18.73221,1.96083 41.28754,4.43736 59.6028,3.95735 7.86295,-0.20606 14.11604,-0.83449 19.19495,-3.92856 6.00615,-3.6589 6.90684,-10.54714 3.38865,-15.97632 -3.02243,-4.66421 -11.49886,-8.08447 -18.84367,-10.86134 -19.36273,-7.32066 -41.781,-10.42252 -63.15885,-14.02745 -9.444174,-1.59258 -9.864791,-1.88671 -19.353346,-2.39667 -7.064465,-0.3797 -12.00876,0.44122 -21.78535,2.02812 -9.946159,1.61491 -32.374918,3.87119 -33.137128,11.15912 z"
       id="path3132"
       sodipodi:nodetypes="ssssssssssss" />
    <path
       style="fill:#ffffff;fill-opacity:1;stroke:#000000;stroke-width:0.771;stroke-linecap:butt;stroke-linejoin:miter;stroke-miterlimit:4;stroke-dasharray:none;stroke-opacity:1"
       d="m 34.864715,-326.59217 c -1.913608,7.02094 14.821536,16.28218 24.98966,23.28932 5.891461,4.05997 13.05869,7.3558 20.146627,10.3676 7.439367,3.16116 15.283271,5.79462 23.143948,7.93795 18.17122,4.95452 40.03245,11.03423 58.18559,13.51263 7.79335,1.06402 14.06597,1.45171 19.57719,-0.78327 6.51737,-2.64296 8.51656,-9.29595 5.91947,-15.22122 -2.23111,-5.09039 -10.04542,-9.83219 -16.8466,-13.75662 -17.92957,-10.34591 -39.55474,-17.02068 -60.072,-24.02424 -9.06399,-3.09401 -9.4317,-3.45209 -18.71399,-5.48479 -6.910891,-1.51342 -11.922855,-1.50017 -21.827393,-1.50985 -10.076404,-0.009 -32.575569,-1.39776 -34.502512,5.67202 z"
       id="path3134"
       sodipodi:nodetypes="ssssssssssss" />
    <path
       style="fill:#ffffff;fill-opacity:1;stroke:#000000;stroke-width:0.771;stroke-linecap:butt;stroke-linejoin:miter;stroke-miterlimit:4;stroke-dasharray:none;stroke-opacity:1"
       d="m 53.164808,-363.42176 c -3.641557,6.30036 10.176897,19.52481 18.220758,28.89428 4.660653,5.42872 10.749811,10.44408 16.834767,15.16458 6.386649,4.95458 13.299077,9.50213 20.352777,13.58005 16.3058,9.42664 35.89241,20.88268 52.81246,27.91054 7.26397,3.01715 13.23009,4.99237 19.12914,4.23745 6.97599,-0.89269 10.60642,-6.81545 9.60701,-13.20723 -0.85854,-5.49116 -7.20445,-12.06973 -12.7793,-17.59949 -14.69661,-14.57796 -33.90316,-26.54914 -51.95457,-38.55556 -7.97464,-5.30415 -8.23882,-5.74419 -16.69531,-10.07785 -6.29606,-3.22653 -11.145534,-4.49244 -20.71982,-7.02878 -9.740637,-2.57953 -31.140891,-9.66263 -34.807802,-3.31844 z"
       id="path3136"
       sodipodi:nodetypes="ssssssssssss" />
    <path
       style="fill:#ffffff;fill-opacity:1;stroke:#000000;stroke-width:0.771;stroke-linecap:butt;stroke-linejoin:miter;stroke-miterlimit:4;stroke-dasharray:none;stroke-opacity:1"
       d="m 108.89622,-425.94291 c -6.02882,4.07538 0.6207,22.00914 3.76101,33.95189 1.81951,6.91969 5.10454,14.09188 8.51465,20.99701 3.57916,7.24753 7.80912,14.35874 12.3714,21.10929 10.5465,15.60486 23.15703,34.46886 35.30436,48.18459 5.21499,5.88833 9.71798,10.27231 15.35378,12.17134 6.66467,2.24578 12.51847,-1.49483 14.41293,-7.68068 1.62758,-5.31422 -1.20521,-14.00464 -3.80283,-21.41473 -6.84786,-19.53496 -18.89142,-38.69621 -29.88057,-57.38432 -4.85472,-8.25596 -4.90002,-8.7672 -10.61226,-16.36083 -4.25289,-5.65365 -8.0615,-8.91162 -15.56462,-15.37716 -7.63387,-6.57708 -23.78677,-22.30048 -29.85755,-18.19675 z"
       id="path3140"
       sodipodi:nodetypes="ssssssssssss" />
    <path
       style="fill:#ffffff;fill-opacity:1;stroke:#000000;stroke-width:0.771;stroke-linecap:butt;stroke-linejoin:miter;stroke-miterlimit:4;stroke-dasharray:none;stroke-opacity:1"
       d="m 73.470862,-395.17039 c -4.850484,5.42478 5.978918,21.19056 11.941789,32.00421 3.454917,6.26548 8.392629,12.41777 13.386391,18.28054 5.241338,6.15349 11.080458,12.0158 17.153698,17.44718 14.03933,12.55539 30.87637,27.7669 46.00648,38.09931 6.49553,4.43583 11.93311,7.58684 17.86209,8.05145 7.01137,0.54949 11.77392,-4.50791 12.09972,-10.96914 0.27995,-5.55082 -4.59015,-13.28582 -8.91941,-19.83675 -11.41291,-17.27 -27.77278,-32.90827 -42.99461,-48.34534 -6.72461,-6.81973 -6.89344,-7.30441 -14.28778,-13.27238 -5.50525,-4.44331 -9.9944,-6.67208 -18.84975,-11.10862 -9.009382,-4.51276 -28.514171,-15.8134 -33.398419,-10.35088 z"
       id="path3138"
       sodipodi:nodetypes="ssssssssssss" />
    <path
       style="fill:#ffffff;fill-opacity:1;stroke:#000000;stroke-width:0.771;stroke-linecap:butt;stroke-linejoin:miter;stroke-miterlimit:4;stroke-dasharray:none;stroke-opacity:1"
       d="m 140.96591,-443.36096 c -6.78394,2.63319 -4.28751,21.59641 -3.88067,33.93842 0.23572,7.15103 1.84416,14.87402 3.63392,22.36445 1.87846,7.86183 4.42174,15.73543 7.3692,23.33127 6.81362,17.5589 14.9151,38.75423 23.70945,54.82714 3.77551,6.90029 7.19126,12.1756 12.26388,15.27996 5.99867,3.67115 12.53754,1.32545 15.75972,-4.28447 2.76822,-4.81944 1.93821,-13.92214 1.05286,-21.72427 -2.33385,-20.56844 -9.81648,-41.92754 -16.37625,-62.59095 -2.89793,-9.12859 -2.82845,-9.63711 -6.70968,-18.31057 -2.88965,-6.45761 -5.87871,-10.48072 -11.75679,-18.45244 -5.98075,-8.10953 -18.23413,-27.03031 -25.06527,-24.37881 z"
       id="path3142"
       sodipodi:nodetypes="ssssssssssss" />
    <path
       style="fill:#ffffff;fill-opacity:1;stroke:#000000;stroke-width:0.771;stroke-linecap:butt;stroke-linejoin:miter;stroke-miterlimit:4;stroke-dasharray:none;stroke-opacity:1"
       d="m 177.89671,-452.26307 c -7.17497,1.21464 -8.54436,20.2924 -10.62866,32.46393 -1.20766,7.05226 -1.18572,14.94094 -0.93938,22.63828 0.25851,8.079 1.16588,16.30326 2.52505,24.33675 3.14203,18.57063 6.81406,40.96241 12.19528,58.47587 2.31021,7.51874 4.5949,13.37336 8.93932,17.43469 5.13753,4.80285 12.0146,3.82051 16.29945,-1.02652 3.68114,-4.16404 4.69927,-13.24762 5.40156,-21.06835 1.85157,-20.61746 -1.18132,-43.04517 -3.45017,-64.60577 -1.00228,-9.52495 -0.83195,-10.0091 -2.88901,-19.28602 -1.53152,-6.9069 -3.65015,-11.44906 -7.80441,-20.4403 -4.22711,-9.14688 -12.42373,-30.14584 -19.64861,-28.92276 z"
       id="path3144"
       sodipodi:nodetypes="ssssssssssss" />
    <path
       style="fill:#ffffff;fill-opacity:1;stroke:#000000;stroke-width:0.771;stroke-linecap:butt;stroke-linejoin:miter;stroke-miterlimit:4;stroke-dasharray:none;stroke-opacity:1"
       d="m 242.67632,-447.55466 c -7.20798,-1.00031 -14.25369,16.78154 -19.90336,27.76205 -3.27345,6.36218 -5.62592,13.89196 -7.70684,21.30678 -2.18411,7.78245 -3.79315,15.89866 -4.91392,23.96886 -2.59073,18.65553 -5.82565,41.11463 -5.96287,59.43565 -0.0589,7.86543 0.35848,14.13617 3.27971,19.3164 3.45451,6.12601 10.3085,7.25822 15.8531,3.92491 4.76339,-2.86359 8.46724,-11.21999 11.48995,-18.46708 7.96878,-19.10515 11.82403,-41.40621 16.14706,-62.65048 1.90985,-9.38518 2.21795,-9.79565 3.04725,-19.26164 0.61747,-7.04767 -0.0365,-12.0168 -1.29311,-21.84131 -1.27935,-9.99485 -2.7784,-32.48694 -10.03652,-33.49422 z"
       id="path3146"
       sodipodi:nodetypes="ssssssssssss" />
    <path
       style="fill:#ffffff;fill-opacity:1;stroke:#000000;stroke-width:0.771;stroke-linecap:butt;stroke-linejoin:miter;stroke-miterlimit:4;stroke-dasharray:none;stroke-opacity:1"
       d="m 289.10771,-431.59129 c -6.86504,-2.41389 -17.30657,13.61142 -25.02725,23.24892 -4.47341,5.58404 -8.27645,12.49551 -11.79051,19.34834 -3.6883,7.19258 -6.8794,14.82663 -9.58284,22.51271 -6.24931,17.76757 -13.88642,39.13461 -17.66471,57.06233 -1.62205,7.69659 -2.46018,13.92506 -0.62758,19.5828 2.16711,6.69068 8.65899,9.16344 14.75578,6.99947 5.23776,-1.85901 10.52959,-9.31182 14.93326,-15.81295 11.60935,-17.1386 19.82296,-38.22738 28.28483,-58.18745 3.73829,-8.81784 4.12187,-9.15883 6.81726,-18.27078 2.00682,-6.78407 2.35421,-11.78399 3.07667,-21.66216 0.73405,-10.04962 3.73833,-32.39052 -3.17446,-34.82122 z"
       id="path3148"
       sodipodi:nodetypes="ssssssssssss" />
    <path
       style="fill:#ffffff;fill-opacity:1;stroke:#000000;stroke-width:0.771;stroke-linecap:butt;stroke-linejoin:miter;stroke-miterlimit:4;stroke-dasharray:none;stroke-opacity:1"
       d="m 335.39419,-398.45144 c -5.77396,-4.42912 -20.68136,7.55443 -31.01632,14.31305 -5.98815,3.916 -11.75197,9.30208 -17.22291,14.72229 -5.74219,5.68894 -11.14913,11.95207 -16.10877,18.41631 -11.46487,14.94313 -25.3681,32.87567 -34.53428,48.73946 -3.93514,6.81053 -6.66866,12.46951 -6.6864,18.41662 -0.021,7.03286 5.37995,11.40188 11.84739,11.24122 5.55617,-0.13797 12.90331,-5.57556 19.11037,-10.38486 16.36354,-12.67847 30.72815,-30.16726 44.9777,-46.50611 6.29514,-7.21806 6.76574,-7.42285 12.16115,-15.24476 4.01705,-5.8236 5.90211,-10.46756 9.6607,-19.63125 3.82293,-9.32303 13.6259,-29.62188 7.81179,-34.08182 z"
       id="path3150"
       sodipodi:nodetypes="ssssssssssss" />
    <path
       style="fill:#ffffff;fill-opacity:1;stroke:#000000;stroke-width:0.771;stroke-linecap:butt;stroke-linejoin:miter;stroke-miterlimit:4;stroke-dasharray:none;stroke-opacity:1"
       d="m 376.20544,-348.55928 c -4.03888,-6.05335 -22.0125,0.48768 -33.97399,3.55576 -6.93058,1.77767 -14.12247,5.0193 -21.0481,8.38761 -7.269,3.53531 -14.40565,7.72221 -21.18365,12.24362 -15.66831,10.452 -34.60817,22.9483 -48.39703,35.01254 -5.91973,5.17934 -10.33087,9.65572 -12.26391,15.27993 -2.28598,6.65101 1.41916,12.52728 7.59343,14.45909 5.3043,1.65967 14.01167,-1.12055 21.43731,-3.67334 19.57601,-6.7297 38.80966,-18.65725 57.56386,-29.53327 8.28516,-4.80471 8.79665,-4.84694 16.42464,-10.51321 5.67926,-4.21864 8.96014,-8.00753 15.47095,-15.47142 6.62306,-7.59399 22.4438,-23.65156 18.37684,-29.74703 z"
       id="path3152"
       sodipodi:nodetypes="ssssssssssss" />
    <path
       style="fill:#ffffff;fill-opacity:1;stroke:#000000;stroke-width:0.771;stroke-linecap:butt;stroke-linejoin:miter;stroke-miterlimit:4;stroke-dasharray:none;stroke-opacity:1"
       d="m 400.61591,-295.00548 c -2.32637,-6.89519 -21.38245,-5.25153 -33.73028,-5.39847 -7.15442,-0.0851 -14.94175,1.17541 -22.5049,2.6275 -7.93813,1.52409 -15.91785,3.71178 -23.63822,6.31571 -17.84674,6.01946 -39.384,13.16246 -55.83503,21.22732 -7.06264,3.46236 -12.48581,6.6381 -15.81448,11.56642 -3.9364,5.82807 -1.88626,12.46551 3.57353,15.93598 4.69048,2.98153 13.82123,2.56049 21.6552,2.02586 20.65243,-1.40929 42.32552,-7.92671 63.26229,-13.5534 9.24935,-2.48569 9.75423,-2.3935 18.59298,-5.88196 6.58069,-2.5972 10.73374,-5.40291 18.96104,-10.91761 8.3695,-5.61115 27.82068,-17.00383 25.47814,-23.94699 z"
       id="path3154"
       sodipodi:nodetypes="ssssssssssss" />
    <path
       style="fill:#ffffff;fill-opacity:1;stroke:#000000;stroke-width:0.771;stroke-linecap:butt;stroke-linejoin:miter;stroke-miterlimit:4;stroke-dasharray:none;stroke-opacity:1"
       d="m 396.61414,-228.44987 c 0.93165,-7.21718 -16.91645,-14.09331 -27.95025,-19.6382 -6.39308,-3.2127 -13.94488,-5.49343 -21.37917,-7.50368 -7.80289,-2.10992 -15.93405,-3.64163 -24.01457,-4.68554 -18.67933,-2.41304 -41.16821,-5.43402 -59.48969,-5.39683 -7.86566,0.016 -14.13212,0.49302 -19.28431,3.46342 -6.09284,3.5127 -7.15977,10.37712 -3.77384,15.88974 2.90881,4.73592 11.30009,8.36006 18.57561,11.31365 19.18016,7.78656 41.51689,11.42936 62.80136,15.54997 9.40293,1.82042 9.8163,2.1246 19.28977,2.86375 7.05323,0.55036 12.0159,-0.15088 21.82802,-1.50095 9.98221,-1.37443 32.45901,-3.08751 33.39716,-10.35489 z"
       id="path3156"
       sodipodi:nodetypes="ssssssssssss" />
    <path
       style="fill:#ffffff;fill-opacity:1;stroke:#000000;stroke-width:0.771;stroke-linecap:butt;stroke-linejoin:miter;stroke-miterlimit:4;stroke-dasharray:none;stroke-opacity:1"
       d="m 37.964103,-197.19477 c 2.684491,6.76381 21.628254,4.12384 33.96683,3.62355 7.149032,-0.28988 14.859618,-1.95676 22.336284,-3.80319 7.847383,-1.93795 15.701503,-4.54079 23.274783,-7.54569 17.50681,-6.94638 38.64018,-15.20813 54.64603,-24.12395 6.87151,-3.82765 12.12078,-7.28326 15.18665,-12.37924 3.62562,-6.02629 1.23047,-12.54721 -4.40369,-15.72683 -4.84026,-2.73163 -13.93642,-1.83271 -21.73162,-0.88831 -20.55017,2.48957 -41.85199,10.1337 -62.465151,16.84977 -9.106367,2.96697 -9.615407,2.90135 -18.25922,6.84815 -6.435542,2.93847 -10.435909,5.95792 -18.362882,11.89619 -8.064233,6.04171 -26.891448,18.43832 -24.188303,25.24918 z"
       id="path3122"
       sodipodi:nodetypes="ssssssssssss"
       inkscape:transform-center-x="13.181409"
       inkscape:transform-center-y="-15.611489" />
    <path
       style="fill:#ffffff;fill-opacity:1;stroke:#000000;stroke-width:0.771;stroke-linecap:butt;stroke-linejoin:miter;stroke-miterlimit:4;stroke-dasharray:none;stroke-opacity:1"
       d="m 377.33142,-167.57321 c 2.77257,-6.72819 -12.67978,-18.0003 -21.89673,-26.21848 -5.34038,-4.76163 -12.04165,-8.92391 -18.69962,-12.79447 -6.98807,-4.06247 -14.44321,-7.65172 -21.97603,-10.75674 -17.41327,-7.17761 -38.34784,-15.93091 -56.05134,-20.64936 -7.60038,-2.02566 -13.77596,-3.19112 -19.52245,-1.65945 -6.79566,1.81129 -9.60735,8.1637 -7.76791,14.36612 1.5802,5.32851 8.74358,11.00601 15.00342,15.74641 16.50253,12.49702 37.12879,21.81134 56.61485,31.31406 8.60843,4.19809 8.92871,4.59912 17.88585,7.77129 6.66879,2.36179 11.64343,2.97237 21.46977,4.21477 9.99691,1.26301 32.14828,5.44128 34.94016,-1.3337 z"
       id="path3158"
       sodipodi:nodetypes="ssssssssssss"
       inkscape:transform-center-x="-67.523519"
       inkscape:transform-center-y="15.896767" />
    <ellipse
       style="fill:#ffff00;fill-opacity:1;fill-rule:evenodd;stroke:none;stroke-width:0.374019;stroke-miterlimit:4;stroke-dasharray:none;stroke-opacity:1"
       id="path1144"
       cx="211.81703"
       cy="-261.15347"
       rx="42.237953"
       ry="44.308449" />
  </g>
</svg>
