<svg id="Layer_1" data-name="Layer 1" xmlns="http://www.w3.org/2000/svg" viewBox="0 0 77.7 71.05">
  <path id="petal" d="M165.06,257.1c9.6.35,17.46-1.11,17.54-3.27s-7.64-4.19-17.24-4.54-8.27,0-17.55,3.27C154.05,255.1,155.45,256.75,165.06,257.1Z" transform="translate(-105.4 -215.87)" fill="#f9f9f9" stroke="#231f20" stroke-miterlimit="10"/>
  <path id="petal-2" data-name="petal" d="M123.47,249.2c-9.6-.42-17.47,1-17.57,3.14s7.61,4.25,17.21,4.67,8.27,0,17.57-3.14C134.47,251.28,133.08,249.62,123.47,249.2Z" transform="translate(-105.4 -215.87)" fill="#f9f9f9" stroke="#231f20" stroke-miterlimit="10"/>
  <path id="petal-3" data-name="petal" d="M147.81,232.24c0-8.76-1.79-15.87-4-15.87s-4,7.11-4,15.87.34,7.53,4,15.88C146.18,242.35,147.81,241,147.81,232.24Z" transform="translate(-105.4 -215.87)" fill="#f9f9f9" stroke="#231f20" stroke-miterlimit="10"/>
  <path id="petal-4" data-name="petal" d="M158.73,237.69c4.62-7.52,6.83-14.52,4.93-15.63s-7.18,4.09-11.81,11.6-3.68,6.63-4.93,15.63C152,245.53,154.11,245.21,158.73,237.69Z" transform="translate(-105.4 -215.87)" fill="#f9f9f9" stroke="#231f20" stroke-miterlimit="10"/>
  <path id="petal-5" data-name="petal" d="M163.62,247.79c8.1-3.81,13.88-8.48,12.91-10.42s-8.3-.43-16.4,3.38-6.8,3.57-12.91,10.43C153.58,250.75,155.53,251.61,163.62,247.79Z" transform="translate(-105.4 -215.87)" fill="#f9f9f9" stroke="#231f20" stroke-miterlimit="10"/>
  <path id="petal-6" data-name="petal" d="M158.59,267.53c7.33,5.06,14.32,7.74,15.6,6s-3.63-7.3-11-12.36-6.5-4.09-15.6-6C151.07,260.39,151.25,262.46,158.59,267.53Z" transform="translate(-105.4 -215.87)" fill="#f9f9f9" stroke="#231f20" stroke-miterlimit="10"/>
  <path id="petal-7" data-name="petal" d="M148.3,273.69c3.88,7.91,8.64,13.56,10.64,12.63s.47-8.1-3.4-16-3.64-6.66-10.65-12.64C145.3,263.89,144.42,265.78,148.3,273.69Z" transform="translate(-105.4 -215.87)" fill="#f9f9f9" stroke="#231f20" stroke-miterlimit="10"/>
  <path id="petal-8" data-name="petal" d="M132.33,269.89c-3.71,8-5.09,15.18-3.07,16.07s6.66-4.85,10.37-12.84,2.89-7,3.08-16.07C138.1,261.35,136,261.91,132.33,269.89Z" transform="translate(-105.4 -215.87)" fill="#f9f9f9" stroke="#231f20" stroke-miterlimit="10"/>
  <path id="petal-9" data-name="petal" d="M124.6,259.59c-8.08,3.84-13.85,8.52-12.88,10.47s8.31.4,16.39-3.43,6.8-3.6,12.88-10.47C134.63,256.61,132.68,255.76,124.6,259.59Z" transform="translate(-105.4 -215.87)" fill="#f9f9f9" stroke="#231f20" stroke-miterlimit="10"/>
  <path id="petal-10" data-name="petal" d="M129.09,239.84c-7.64-4.61-14.78-6.87-16-5s4.09,7.07,11.73,11.68,6.74,3.69,15.95,5C137,246.51,136.73,244.46,129.09,239.84Z" transform="translate(-105.4 -215.87)" fill="#f9f9f9" stroke="#231f20" stroke-miterlimit="10"/>
  <path id="petal-11" data-name="petal" d="M137.3,233.71c-4.55-7.56-9.79-12.81-11.7-11.71s.23,8.1,4.78,15.67,4.2,6.33,11.69,11.71C141.13,243.23,141.84,241.27,137.3,233.71Z" transform="translate(-105.4 -215.87)" fill="#f9f9f9" stroke="#231f20" stroke-miterlimit="10"/>
  <ellipse id="flower_center" cx="38.4" cy="37.24" rx="3.12" ry="5" fill="#f4ed71" stroke="#231f20" stroke-miterlimit="10"/>
</svg>
